<?xml version="1.0" encoding="utf-8"?>
<svg viewBox="0 0 500 500" xmlns="http://www.w3.org/2000/svg">
  <ellipse style="fill: rgb(78, 179, 237); stroke-width: 0;" cx="252.97914124" cy="173.72964478" rx="246.68699646" ry="246.68701172" transform="matrix(1, 0, 0, 1, -2.3834493160247803, 317.8373718261719)"/>
  <defs>
    <linearGradient id="gradient-1" gradientUnits="userSpaceOnUse" x1="284.39432525634766" y1="34.88981628417969" x2="284.39432525634766" y2="194.61932373046875" spreadMethod="pad">
      <stop style="stop-color: rgb(49, 66, 64);" offset="0"/>
      <stop style="stop-color: rgb(5, 7, 7);" offset="1"/>
    </linearGradient>
    <linearGradient id="gradient-2" gradientUnits="userSpaceOnUse" x1="653.4044799804688" y1="407.98065185546875" x2="653.4044799804688" y2="407.98065185546875" spreadMethod="pad">
      <stop style="stop-color: rgb(49, 66, 64);" offset="0"/>
      <stop style="stop-color: rgb(5, 7, 7);" offset="1"/>
    </linearGradient>
    <linearGradient id="gradient-3" gradientUnits="userSpaceOnUse" x1="284.39432525634766" y1="34.88981628417969" x2="284.39432525634766" y2="194.61932373046875">
      <stop style="stop-color: rgb(49, 66, 64);" offset="0"/>
      <stop style="stop-color: rgb(5, 7, 7);" offset="1"/>
    </linearGradient>
    <linearGradient id="gradient-4" gradientUnits="userSpaceOnUse" x1="653.4044799804688" y1="407.98065185546875" x2="653.4044799804688" y2="407.98065185546875">
      <stop style="stop-color: rgb(49, 66, 64);" offset="0"/>
      <stop style="stop-color: rgb(5, 7, 7);" offset="1"/>
    </linearGradient>
    <linearGradient id="gradient-5" gradientUnits="userSpaceOnUse" x1="284.39432525634766" y1="34.88981628417969" x2="284.39432525634766" y2="194.61932373046875" gradientTransform="matrix(0.8958764268320515, -0.02020766461091592, 0.019622597674271755, 0.8699405370617384, 31.932314971870777, 20.53052629167946)">
      <stop style="stop-color: rgb(49, 66, 64);" offset="0"/>
      <stop style="stop-color: rgb(43, 58, 41);" offset="1"/>
    </linearGradient>
    <linearGradient id="gradient-6" gradientUnits="userSpaceOnUse" x1="653.4044799804688" y1="407.98065185546875" x2="653.4044799804688" y2="407.98065185546875">
      <stop style="stop-color: rgb(49, 66, 64);" offset="0"/>
      <stop style="stop-color: rgb(5, 7, 7);" offset="1"/>
    </linearGradient>
  </defs>
  <path style="stroke: black; fill: none;"/>
  <path style="stroke: black; fill: none;"/>
  <path d="M 222.10061645507812 126.62812805175781 L 253.44390869140625 72.2998046875 L 279.56329345703125 105.73261260986328 L 288.96624755859375 87.97142791748047 L 335.98114013671875 142.2997589111328 L 298.6502685546875 178.1174774169922 L 222.10061645507812 126.62812805175781 Z " style="stroke: black; fill: rgb(55, 71, 88); stroke-width: 0;" transform="matrix(1, 0, 0, 1, -2.3834493160247803, 255.8373565673828)"/>
  <path d="M 253.5375213623047 72.53398895263672 L 261.79364013671875 104.23117065429688 L 264.9149475097656 147.0155487060547 L 276.1763000488281 123.78514862060547 L 279.4480895996094 105.6643295288086 L 253.5375213623047 72.53398895263672 Z " style="stroke: black; fill: rgb(90, 108, 117); stroke-width: 0;" transform="matrix(1, 0, 0, 1, -2.3834493160247803, 255.8373565673828)"/>
  <path d="M 234.0278778076172 104.75406646728516 C 237.91363525390625 96.24937438964844 242.59693908691406 104.21390533447266 247.47012329101562 104.23859405517578 C 252.616455078125 104.2646713256836 260.04132080078125 99.61072540283203 262.1697998046875 96.91514587402344 C 267.1175842285156 90.64913177490234 273.3656005859375 97.58091735839844 273.3656005859375 97.58091735839844 L 253.37599182128906 71.3940658569336 L 234.0278778076172 104.75406646728516 Z " style="stroke: black; fill: rgb(243, 249, 249); stroke-width: 0;" transform="matrix(1, 0, 0, 1, -2.3834493160247803, 255.8373565673828)"/>
  <path d="M 256.9954833984375 103.67843627929688" style="stroke: black; fill: rgb(55, 71, 88);"/>
  <path d="M 270.98638916015625 132.82615661621094" style="stroke: black; fill: none;"/>
  <path d="M 279.1477355957031 87.355712890625" style="stroke: black; fill: none;"/>
  <path d="M 294.3045654296875 108.34207153320312" style="stroke: black; fill: none;"/>
  <path d="M 129.1156005859375 192.44898986816406 L 204.3394317626953 49.31473922729492 L 298.3692321777344 190.35943603515625 L 372.5483093261719 62.896820068359375 L 433.145263671875 169.46392822265625 L 129.1156005859375 192.44898986816406 Z " style="stroke: black; fill: url(#gradient-5); fill-rule: nonzero; stroke-width: 0;" transform="matrix(1, 0, 0, 1, -2.3834493160247803, 255.8373565673828)"/>
  <path d="M 284.977294921875 124.664794921875" style="stroke: black; fill: none;"/>
  <path d="M 204.3394317626953 50.3595085144043 L 213.742431640625 93.1953125 L 229.41404724121094 116.18037414550781 L 268.84161376953125 206.7011260986328 L 284.5061340332031 167.0933380126953 L 204.3394317626953 50.3595085144043 Z " style="stroke: black; fill: rgb(70, 84, 91); stroke-width: 0;" transform="matrix(1, 0, 0, 1, -2.3834493160247803, 255.8373565673828)"/>
  <path d="M 360.6946105957031 154.852783203125 L 353.5614013671875 140.58633422851562 L 362.18133544921875 98.34320068359375 L 361.6457214355469 137.25747680664062 L 371.6322326660156 150.57284545898438 L 364.9745788574219 181.4834747314453 L 358.7924499511719 181.95901489257812 L 360.6946105957031 154.852783203125 Z " style="stroke: black; fill: rgb(70, 84, 91); stroke-width: 0;" transform="matrix(1, 0, 0, 1, -2.3834493160247803, 255.8373565673828)"/>
  <path d="M 146.35440063476562 212.18104553222656 C 146.35440063476562 212.18104553222656 188.8109130859375 141.6152801513672 221.87673950195312 141.05172729492188 C 253.2161102294922 140.51760864257812 265.72503662109375 194.52525329589844 295.3012390136719 205.9958953857422 C 302.7796630859375 208.8962860107422 311.8543701171875 209.60321044921875 319.0767822265625 205.9958953857422 C 342.85693359375 194.11865234375 344.7642517089844 139.56478881835938 370.8235778808594 141.05172729492188 C 393.6897888183594 142.35647583007812 410.6825866699219 202.9033203125 410.6825866699219 202.9033203125 C 410.6825866699219 202.9033203125 344.7641296386719 225.09210205078125 310.6854248046875 227.64393615722656 C 255.83604431152344 231.75111389160156 146.35440063476562 212.18104553222656 146.35440063476562 212.18104553222656 Z " style="stroke: black; fill: rgb(97, 144, 50); stroke-width: 0;" transform="matrix(1, 0, 0, 1, -2.3834493160247803, 255.8373565673828)"/>
  <path d="M 290.0110168457031 89.01619720458984 L 316.13043212890625 150.657958984375 L 329.7125244140625 134.986328125 L 290.0110168457031 89.01619720458984 Z " style="stroke: black; fill: rgb(90, 108, 117); stroke-width: 0;" transform="matrix(1, 0, 0, 1, -2.3834493160247803, 255.8373565673828)"/>
  <path d="M 265.10943603515625 200.0298614501953 C 271.6369323730469 196.00201416015625 276.71295166015625 181.42266845703125 281.0053405761719 173.35296630859375 C 282.9364013671875 169.72244262695312 283.65582275390625 165.79037475585938 283.65582275390625 165.79037475585938 L 281.2781066894531 162.9370880126953 C 281.2781066894531 162.9370880126953 284.0391845703125 162.67449951171875 285.08245849609375 163.4126434326172 C 287.1079406738281 164.84568786621094 288.1845397949219 167.6046142578125 288.4112854003906 170.07029724121094 C 289.29791259765625 179.71078491210938 272.24267578125 190.5188751220703 272.24267578125 190.5188751220703 L 265.58502197265625 208.11415100097656 C 265.58502197265625 208.11415100097656 260.9798278808594 202.57810974121094 265.10943603515625 200.0298614501953 Z " style="stroke: black; fill: rgb(54, 147, 181); stroke-width: 0;" transform="matrix(1, 0, 0, 1, -2.3834493160247803, 255.8373565673828)"/>
  <path d="M 46.57833480834961 218.8875274658203 C 46.57833480834961 218.8875274658203 96.08297729492188 123.52970886230469 134.63796997070312 122.76817321777344 C 171.17991638183594 122.04640197753906 185.7654266357422 195.02865600585938 220.25152587890625 210.52932739257812 C 228.97142028808594 214.44871520996094 239.55259704589844 215.4040069580078 247.9739990234375 210.52932739257812 C 275.70184326171875 194.47923278808594 294.80242919921875 142.2097930908203 324.00421142578125 154.15435791015625 C 344.27630615234375 162.44638061523438 354.7870788574219 206.3502197265625 354.7870788574219 206.3502197265625 C 354.7870788574219 206.3502197265625 277.9256286621094 236.3346405029297 238.18960571289062 239.7830352783203 C 174.23480224609375 245.33319091796875 46.57833480834961 218.8875274658203 46.57833480834961 218.8875274658203 Z " style="stroke: black; fill: rgb(112, 164, 61); stroke-width: 0;" transform="matrix(1, 0, 0, 1, -2.3834493160247803, 255.8373565673828)"/>
  <path d="M 371.5035095214844 62.89681625366211 L 386.13037109375 105.73261260986328 L 387.1751403808594 131.8520050048828 L 427.92138671875 215.43405151367188 L 440.4587097167969 177.82212829589844 L 371.5035095214844 62.89681625366211 Z " style="stroke: black; fill: rgb(70, 84, 91); stroke-width: 0;" transform="matrix(1, 0, 0, 1, -2.3834493160247803, 255.8373565673828)"/>
  <path d="M 72.99305725097656 212.76095581054688 C 112.4499282836914 190.4500732421875 128.81736755371094 127.38966369628906 178.2200469970703 126.62812805175781 C 225.04327392578125 125.9063491821289 243.73251342773438 198.88861083984375 287.9214782714844 214.38926696777344 C 299.09478759765625 218.30865478515625 312.6530456542969 219.26394653320312 323.44384765625 214.38926696777344 C 358.97308349609375 198.3391876220703 361.8227844238281 124.61878204345703 400.7572326660156 126.62812805175781 C 434.92095947265625 128.39126586914062 438.5141296386719 191.39495849609375 465.06488037109375 223.5255126953125 C 469.27862548828125 228.62481689453125 361.3470153808594 224.97705078125 310.4310302734375 228.42543029785156 C 240.70269775390625 233.14791870117188 87.97042846679688 222.86984252929688 51.20228576660156 220.55039978027344 C 44.7583122253418 220.14389038085938 66.27845764160156 216.5577392578125 72.99305725097656 212.76095581054688 Z " style="stroke: black; fill: rgb(151, 218, 85); stroke-width: 0;" transform="matrix(1, 0, 0, 1, -2.3834493160247803, 255.8373565673828)"/>
  <path d="M 653.4044799804688 407.98065185546875" style="stroke: black; fill: url(#gradient-6); fill-rule: nonzero;"/>
  <path d="M 259.3273010253906 113.00570678710938" style="stroke: black; fill: none;"/>
  <path d="M 237.17503356933594 129.32843017578125" style="stroke: black; fill: none;"/>
  <rect x="8.660576561007405" y="201.47717077061785" width="433.69991299790985" height="23.30181089714088" rx="14.859156608581543" ry="14.859156608581543" style="fill: rgb(132, 204, 59); stroke-linejoin: round;" transform="matrix(1, 0, 0, 1.0000009536743164, 23.900096893310547, 273.8871765136719)"/>
  <path d="M 36.729594230651855 208.38595581054688 L 36.729594230651855 208.38595581054688 Z " style="stroke: black; fill: none;"/>
  <path d="M 291.4580078125 169.64602661132812" style="stroke: black; fill: none;"/>
  <path d="M -30.13660430908203 23.707876205444336" style="stroke: black; fill: none;"/>
  <path d="M 272.3533630371094 205.2018585205078" style="stroke: black; fill: rgb(59, 163, 200); stroke-width: 0;"/>
  <path d="M 155.73336791992188 132.0264434814453 C 161.96963500976562 129.0598602294922 183.89193725585938 134.61521911621094 191.3994598388672 140.1107635498047 C 217.70399475097656 159.36582946777344 234.31637573242188 202.47134399414062 267.4871826171875 215.2473907470703 C 276.44464111328125 218.6974334716797 286.61376953125 220.96133422851562 286.6479797363281 212.99813842773438 C 286.6479797363281 212.99813842773438 302.2895812988281 219.48818969726562 295.0689697265625 224.7583465576172 C 282.9584045410156 233.59754943847656 284.64544677734375 242.0832061767578 259.4236145019531 242.4947509765625 C 223.8494415283203 243.0751953125 69.09027862548828 243.20516967773438 69.09027862548828 243.20516967773438 C 41.45793533325195 228.38735961914062 44.93063735961914 220.0028839111328 44.93063735961914 220.0028839111328 C 97.636962890625 216.79751586914062 116.79328155517578 150.55015563964844 155.73336791992188 132.0264434814453 Z " style="stroke: black; fill: rgb(132, 204, 59); stroke-width: 0;" transform="matrix(1, 0, 0, 1, -2.3834493160247803, 255.8373565673828)"/>
  <path d="M 315.668701171875 221.99012756347656 C 303.9573059082031 214.82391357421875 308.85528564453125 219.486328125 319.6460876464844 214.61163330078125 C 355.1753234863281 198.56155395507812 357.5494689941406 127.21888732910156 394.5817565917969 126.85049438476562 C 428.78924560546875 126.51020812988281 420.449951171875 187.8129425048828 447.0007019042969 219.94351196289062 C 451.2144470214844 225.04281616210938 359.1985168457031 248.62603759765625 315.668701171875 221.99012756347656 Z " style="stroke: black; fill: rgb(132, 204, 59); stroke-width: 0;" transform="matrix(1, 0, 0, 1, -2.3834493160247803, 255.8373565673828)"/>
  <path d="M 278.4247741699219 209.5408172607422 C 278.4247741699219 209.5408172607422 282.3578186035156 211.02149963378906 286.9846496582031 211.91854858398438 C 290.87823486328125 212.6734161376953 295.9193115234375 213.22976684570312 300.3000183105469 214.29629516601562 C 304.9766540527344 215.43487548828125 308.97100830078125 215.02891540527344 314.09088134765625 218.5762176513672 C 317.923095703125 221.23133850097656 320.8600769042969 223.66078186035156 320.2730407714844 228.562744140625 C 319.60662841796875 234.1273651123047 310.28656005859375 236.6470489501953 310.28656005859375 236.6470489501953 C 310.28656005859375 236.6470489501953 296.8608703613281 238.87400817871094 292.2156982421875 243.3047332763672 C 288.97747802734375 246.39346313476562 263.6828308105469 244.7313690185547 263.6828308105469 244.7313690185547 C 263.6828308105469 244.7313690185547 261.6935119628906 244.166015625 265.5849914550781 239.50033569335938 C 270.3081359863281 233.83753967285156 285.5580139160156 229.9893798828125 285.5580139160156 229.9893798828125 C 285.5580139160156 229.9893798828125 296.4490051269531 226.82164001464844 296.4956359863281 222.38059997558594 C 296.5408935546875 218.06874084472656 278.4247741699219 209.5408172607422 278.4247741699219 209.5408172607422 Z " style="stroke: black; fill: rgb(59, 153, 187); stroke-width: 0;" transform="matrix(1, 0, 0, 1, -2.3834493160247803, 255.8373565673828)"/>
  <path style="stroke: black; fill: none;"/>
  <path d="M 185.82481384277344 83.99608612060547 C 190.58026123046875 74.9606704711914 197.751220703125 76.35209655761719 202.11273193359375 76.38731384277344 C 205.5724334716797 76.4152603149414 210.38478088378906 82.12872314453125 212.289794921875 79.24061584472656 C 216.7180938720703 72.52702331542969 222.31011962890625 76.38731384277344 222.31011962890625 76.38731384277344 L 204.41921997070312 48.32997512817383 L 185.82481384277344 83.99608612060547 Z " style="stroke: black; fill: rgb(243, 249, 249); stroke-width: 0;" transform="matrix(1, 0, 0, 1, -2.3834493160247803, 255.8373565673828)"/>
  <path d="M 160.90969848632812 65.10124206542969" style="stroke: black; fill: none;"/>
  <path d="M 356.0050964355469 89.94043731689453 C 356.0050964355469 89.94043731689453 358.533447265625 89.01927947998047 364.67132568359375 92.56198120117188 C 368.4237365722656 94.72781372070312 381.2257385253906 96.83422088623047 381.80401611328125 91.8426284790039 C 381.80401611328125 91.8426284790039 377.03179931640625 85.68631744384766 381.9945068359375 86.13606262207031 C 386.1224365234375 86.5101547241211 392.49041748046875 97.07365417480469 392.49041748046875 97.07365417480469 L 372.69732666015625 59.98090362548828 L 356.0050964355469 89.94043731689453 Z " style="stroke: black; fill: rgb(247, 249, 249); stroke-width: 0;" transform="matrix(1, 0, 0, 1, -2.3834493160247803, 255.8373565673828)"/>
  <path d="M 283.3211669921875 98.39201354980469 C 282.0735168457031 100.67925262451172 292.85205078125 105.7647933959961 293.9250183105469 100.28266906738281 C 294.3797302246094 97.95941925048828 295.95166015625 98.57584381103516 297.25518798828125 96.8356704711914 L 289.12518310546875 87.49584197998047 L 283.3211669921875 98.39201354980469 Z " style="stroke: black; fill: rgb(243, 249, 249); stroke-width: 0;" transform="matrix(1, 0, 0, 1, -2.3834493160247803, 255.8373565673828)"/>
</svg>